<svg width="460" height="375" viewBox="0 0 460 375" fill="none" xmlns="http://www.w3.org/2000/svg">
<path d="M229.998 327.973C320.566 327.973 393.985 254.554 393.985 163.987C393.985 73.4194 320.566 0 229.998 0C139.431 0 66.0117 73.4194 66.0117 163.987C66.0117 254.554 139.431 327.973 229.998 327.973Z" fill="white"/>
<path opacity="0.1" d="M229.998 327.973C320.566 327.973 393.985 254.554 393.985 163.987C393.985 73.4194 320.566 0 229.998 0C139.431 0 66.0117 73.4194 66.0117 163.987C66.0117 254.554 139.431 327.973 229.998 327.973Z" fill="#6206B7"/>
<path d="M123.423 219.685L44.999 219.447L45.3217 112.91L99.5499 113.074L123.672 137.343L123.423 219.685Z" fill="white"/>
<path opacity="0.3" d="M99.55 113.074L99.4766 137.27L123.672 137.343L99.55 113.074Z" fill="#6206B7"/>
<path d="M124.165 137.313C124.163 137.269 124.154 137.226 124.14 137.185C124.135 137.169 124.131 137.153 124.124 137.137C124.1 137.083 124.067 137.033 124.026 136.991L99.904 112.722C99.8616 112.68 99.812 112.646 99.7577 112.622C99.7425 112.615 99.727 112.61 99.7112 112.605C99.6693 112.59 99.6256 112.582 99.5813 112.579C99.5708 112.579 99.5614 112.572 99.5509 112.572L45.3232 112.41C45.1907 112.41 45.0637 112.463 44.97 112.556C44.8763 112.65 44.8237 112.777 44.8237 112.91L44.4995 219.445C44.4995 219.578 44.5521 219.705 44.6458 219.799C44.7395 219.892 44.8665 219.945 44.999 219.945L123.42 220.184C123.552 220.184 123.679 220.132 123.773 220.038C123.867 219.944 123.919 219.817 123.919 219.685L124.169 137.343C124.171 137.333 124.166 137.324 124.165 137.313ZM100.043 114.282L111.182 125.484L122.468 136.838L99.9774 136.77L100.043 114.282ZM45.4985 218.949L45.8182 113.411L99.0469 113.572L98.9754 137.268C98.9754 137.401 99.0281 137.528 99.1217 137.621C99.2154 137.715 99.3425 137.768 99.4749 137.768L123.171 137.839L122.925 219.182L45.4985 218.949Z" fill="#262626"/>
<path d="M283.3 215.422L176.357 215.098L176.797 69.8164L250.746 70.0407L283.641 103.135L283.3 215.422Z" fill="white"/>
<path opacity="0.3" d="M250.745 70.0391L250.646 103.034L283.64 103.134L250.745 70.0391Z" fill="#6206B7"/>
<path d="M284.134 103.104C284.131 103.061 284.123 103.018 284.109 102.976C284.103 102.96 284.099 102.945 284.092 102.927C284.069 102.872 284.036 102.823 283.995 102.78L251.1 69.6856C251.058 69.6439 251.008 69.61 250.954 69.5857C250.938 69.5787 250.924 69.5747 250.908 69.5692C250.866 69.5547 250.822 69.5458 250.778 69.5428C250.767 69.5428 250.758 69.5368 250.747 69.5368L176.798 69.3125C176.666 69.3125 176.539 69.3651 176.445 69.4588C176.352 69.5525 176.299 69.6795 176.299 69.812L175.859 215.093C175.859 215.226 175.912 215.353 176.005 215.446C176.099 215.54 176.226 215.593 176.358 215.593L283.3 215.917C283.433 215.917 283.56 215.864 283.653 215.771C283.747 215.677 283.8 215.55 283.8 215.417L284.14 103.131C284.14 103.125 284.134 103.115 284.134 103.104ZM251.241 71.247L282.435 102.631L251.146 102.536L251.241 71.247ZM176.858 214.599L177.295 70.3165L250.245 70.5378L250.145 103.033C250.145 103.165 250.197 103.292 250.291 103.386C250.385 103.48 250.512 103.532 250.644 103.532L283.139 103.632L282.802 214.92L176.858 214.599Z" fill="#262626"/>
<path d="M414.749 219.685L336.326 219.447L336.648 112.91L390.877 113.074L414.999 137.343L414.749 219.685Z" fill="white"/>
<path opacity="0.3" d="M390.877 113.078L390.803 137.274L414.999 137.347L390.877 113.078Z" fill="#6206B7"/>
<path d="M415.492 137.315C415.49 137.271 415.481 137.228 415.467 137.187C415.462 137.171 415.457 137.155 415.45 137.139C415.427 137.085 415.394 137.035 415.353 136.993L391.231 112.724C391.188 112.682 391.139 112.648 391.085 112.624C391.069 112.617 391.054 112.612 391.038 112.607C390.996 112.592 390.953 112.584 390.908 112.581C390.898 112.581 390.888 112.574 390.878 112.574L336.65 112.41C336.517 112.41 336.39 112.463 336.297 112.556C336.203 112.65 336.15 112.777 336.15 112.91L335.828 219.447C335.828 219.579 335.88 219.706 335.974 219.8C336.068 219.894 336.195 219.946 336.327 219.946L414.751 220.184C414.883 220.184 415.01 220.132 415.104 220.038C415.198 219.944 415.25 219.817 415.25 219.685L415.5 137.343C415.498 137.335 415.493 137.326 415.492 137.315ZM391.372 114.284L402.507 125.486L413.794 136.84L391.304 136.772L391.372 114.284ZM336.827 218.951L337.147 113.413L390.376 113.574L390.304 137.27C390.304 137.402 390.357 137.53 390.45 137.623C390.544 137.717 390.671 137.77 390.804 137.77L414.5 137.841L414.253 219.184L336.827 218.951Z" fill="#262626"/>
<path d="M203.285 154.481C207.42 154.481 210.772 151.129 210.772 146.994C210.772 142.86 207.42 139.508 203.285 139.508C199.151 139.508 195.799 142.86 195.799 146.994C195.799 151.129 199.151 154.481 203.285 154.481Z" fill="#292A2E"/>
<path d="M254.62 154.481C258.754 154.481 262.106 151.129 262.106 146.994C262.106 142.86 258.754 139.508 254.62 139.508C250.485 139.508 247.133 142.86 247.133 146.994C247.133 151.129 250.485 154.481 254.62 154.481Z" fill="#292A2E"/>
<path d="M238.989 167.698H218.916C218.783 167.698 218.656 167.646 218.562 167.552C218.469 167.458 218.416 167.331 218.416 167.199C218.416 167.066 218.469 166.939 218.562 166.846C218.656 166.752 218.783 166.699 218.916 166.699H238.989C239.122 166.699 239.249 166.752 239.342 166.846C239.436 166.939 239.489 167.066 239.489 167.199C239.489 167.331 239.436 167.458 239.342 167.552C239.249 167.646 239.122 167.698 238.989 167.698Z" fill="#262626"/>
<path d="M195.563 168.409C199.251 168.409 202.241 166.835 202.241 164.894C202.241 162.953 199.251 161.379 195.563 161.379C191.874 161.379 188.884 162.953 188.884 164.894C188.884 166.835 191.874 168.409 195.563 168.409Z" fill="white"/>
<path d="M262.342 168.409C266.031 168.409 269.021 166.835 269.021 164.894C269.021 162.953 266.031 161.379 262.342 161.379C258.654 161.379 255.664 162.953 255.664 164.894C255.664 166.835 258.654 168.409 262.342 168.409Z" fill="white"/>
<g opacity="0.4">
<path d="M195.563 168.409C199.251 168.409 202.241 166.835 202.241 164.894C202.241 162.953 199.251 161.379 195.563 161.379C191.874 161.379 188.884 162.953 188.884 164.894C188.884 166.835 191.874 168.409 195.563 168.409Z" fill="#6206B7"/>
<path d="M262.342 168.409C266.031 168.409 269.021 166.835 269.021 164.894C269.021 162.953 266.031 161.379 262.342 161.379C258.654 161.379 255.664 162.953 255.664 164.894C255.664 166.835 258.654 168.409 262.342 168.409Z" fill="#6206B7"/>
</g>
<path d="M283.8 104.325C271.053 89.6894 253.014 80.7168 233.651 79.3808C214.289 78.0447 195.189 84.4547 180.552 97.2006C156.098 118.498 148.584 153.905 162.282 183.314C165.032 189.206 168.559 194.705 172.768 199.662L173.667 200.727L106.638 271.861C105.413 273.181 104.759 274.932 104.819 276.732C104.879 278.532 105.648 280.236 106.959 281.471C108.27 282.706 110.017 283.373 111.817 283.326C113.618 283.279 115.327 282.521 116.571 281.219L183.583 210.096L184.703 210.935C199.164 221.782 217.128 226.893 235.133 225.283C253.138 223.673 269.91 215.457 282.218 202.216C294.525 188.976 301.497 171.649 301.79 153.575C302.082 135.5 295.675 117.957 283.802 104.325H283.8ZM288.003 156.486C286.965 171.515 280.269 185.591 269.265 195.879C258.26 206.166 243.765 211.9 228.701 211.925C227.31 211.925 225.915 211.875 224.514 211.775C214.736 211.111 205.272 208.045 196.963 202.847C188.654 197.65 181.755 190.482 176.879 181.98C172.003 173.478 169.301 163.905 169.012 154.108C168.722 144.311 170.855 134.595 175.22 125.82C179.585 117.044 186.049 109.482 194.037 103.803C202.025 98.1245 211.291 94.5046 221.013 93.2646C230.735 92.0246 240.613 93.2029 249.77 96.695C258.928 100.187 267.083 105.885 273.511 113.283C278.661 119.17 282.593 126.019 285.08 133.435C287.568 140.85 288.561 148.685 288.003 156.486Z" fill="#6206B7"/>
<path d="M135.381 370.63C134.274 370.63 133.334 370.43 132.561 370.03C131.788 369.63 131.094 369.043 130.481 368.27L132.041 366.71C132.428 367.27 132.888 367.71 133.421 368.03C133.954 368.336 134.634 368.49 135.461 368.49C136.234 368.49 136.848 368.33 137.301 368.01C137.768 367.69 138.001 367.25 138.001 366.69C138.001 366.223 137.881 365.843 137.641 365.55C137.401 365.256 137.081 365.016 136.681 364.83C136.294 364.63 135.861 364.456 135.381 364.31C134.914 364.15 134.441 363.976 133.961 363.79C133.494 363.59 133.061 363.343 132.661 363.05C132.274 362.756 131.961 362.376 131.721 361.91C131.481 361.443 131.361 360.85 131.361 360.13C131.361 359.303 131.561 358.603 131.961 358.03C132.374 357.443 132.928 356.996 133.621 356.69C134.314 356.383 135.088 356.23 135.941 356.23C136.861 356.23 137.681 356.41 138.401 356.77C139.134 357.13 139.728 357.59 140.181 358.15L138.621 359.71C138.221 359.256 137.801 358.923 137.361 358.71C136.934 358.483 136.441 358.37 135.881 358.37C135.188 358.37 134.641 358.51 134.241 358.79C133.854 359.07 133.661 359.463 133.661 359.97C133.661 360.396 133.781 360.743 134.021 361.01C134.261 361.263 134.574 361.483 134.961 361.67C135.361 361.843 135.794 362.01 136.261 362.17C136.741 362.33 137.214 362.51 137.681 362.71C138.161 362.91 138.594 363.17 138.981 363.49C139.381 363.796 139.701 364.196 139.941 364.69C140.181 365.183 140.301 365.803 140.301 366.55C140.301 367.803 139.854 368.796 138.961 369.53C138.081 370.263 136.888 370.63 135.381 370.63ZM146.577 370.63C145.644 370.63 144.797 370.41 144.037 369.97C143.277 369.516 142.67 368.91 142.217 368.15C141.777 367.39 141.557 366.543 141.557 365.61C141.557 364.676 141.777 363.836 142.217 363.09C142.67 362.343 143.277 361.75 144.037 361.31C144.797 360.856 145.644 360.63 146.577 360.63C147.524 360.63 148.377 360.85 149.137 361.29C149.897 361.73 150.497 362.33 150.937 363.09C151.39 363.836 151.617 364.676 151.617 365.61C151.617 366.543 151.39 367.39 150.937 368.15C150.497 368.91 149.897 369.516 149.137 369.97C148.377 370.41 147.524 370.63 146.577 370.63ZM146.577 368.51C147.124 368.51 147.604 368.39 148.017 368.15C148.444 367.896 148.77 367.55 148.997 367.11C149.237 366.67 149.357 366.17 149.357 365.61C149.357 365.05 149.237 364.556 148.997 364.13C148.757 363.703 148.43 363.37 148.017 363.13C147.604 362.876 147.124 362.75 146.577 362.75C146.044 362.75 145.564 362.876 145.137 363.13C144.724 363.37 144.397 363.703 144.157 364.13C143.93 364.556 143.817 365.05 143.817 365.61C143.817 366.17 143.93 366.67 144.157 367.11C144.397 367.55 144.724 367.896 145.137 368.15C145.564 368.39 146.044 368.51 146.577 368.51ZM153.447 370.43V360.83H155.647V370.43H153.447ZM155.647 365.09L154.887 364.71C154.887 363.496 155.153 362.516 155.687 361.77C156.233 361.01 157.053 360.63 158.147 360.63C158.627 360.63 159.06 360.716 159.447 360.89C159.833 361.063 160.193 361.343 160.527 361.73L159.087 363.21C158.913 363.023 158.72 362.89 158.507 362.81C158.293 362.73 158.047 362.69 157.767 362.69C157.153 362.69 156.647 362.883 156.247 363.27C155.847 363.656 155.647 364.263 155.647 365.09ZM161.591 370.43V360.83H163.791V370.43H161.591ZM163.791 365.09L163.031 364.71C163.031 363.496 163.298 362.516 163.831 361.77C164.378 361.01 165.198 360.63 166.291 360.63C166.771 360.63 167.204 360.716 167.591 360.89C167.978 361.063 168.338 361.343 168.671 361.73L167.231 363.21C167.058 363.023 166.864 362.89 166.651 362.81C166.438 362.73 166.191 362.69 165.911 362.69C165.298 362.69 164.791 362.883 164.391 363.27C163.991 363.656 163.791 364.263 163.791 365.09ZM172.699 370.53L168.599 360.83H171.019L173.819 367.95H173.119L176.079 360.83H178.519L174.059 370.53H172.699ZM169.839 374.43L172.819 368.29L174.059 370.53L172.279 374.43H169.839ZM184.434 365.79L184.134 356.03H186.434L186.134 365.79H184.434ZM185.274 370.63C184.848 370.63 184.494 370.49 184.214 370.21C183.948 369.916 183.814 369.563 183.814 369.15C183.814 368.723 183.948 368.37 184.214 368.09C184.494 367.81 184.848 367.67 185.274 367.67C185.701 367.67 186.048 367.81 186.314 368.09C186.594 368.37 186.734 368.723 186.734 369.15C186.734 369.563 186.594 369.916 186.314 370.21C186.048 370.49 185.701 370.63 185.274 370.63ZM195.073 365.15V363.15H198.573C199.053 363.15 199.473 363.056 199.833 362.87C200.206 362.67 200.499 362.396 200.713 362.05C200.926 361.69 201.033 361.27 201.033 360.79C201.033 360.31 200.926 359.896 200.713 359.55C200.499 359.19 200.206 358.916 199.833 358.73C199.473 358.53 199.053 358.43 198.573 358.43H195.073V356.43H198.693C199.573 356.43 200.359 356.61 201.053 356.97C201.759 357.33 202.313 357.836 202.713 358.49C203.126 359.143 203.333 359.91 203.333 360.79C203.333 361.67 203.126 362.436 202.713 363.09C202.313 363.743 201.759 364.25 201.053 364.61C200.359 364.97 199.573 365.15 198.693 365.15H195.073ZM193.493 370.43V356.43H195.793V370.43H193.493ZM208.795 370.63C207.928 370.63 207.141 370.41 206.435 369.97C205.741 369.53 205.188 368.936 204.775 368.19C204.375 367.43 204.175 366.583 204.175 365.65C204.175 364.703 204.375 363.856 204.775 363.11C205.188 362.35 205.741 361.75 206.435 361.31C207.141 360.856 207.928 360.63 208.795 360.63C209.528 360.63 210.175 360.79 210.735 361.11C211.308 361.416 211.761 361.843 212.095 362.39C212.428 362.936 212.595 363.556 212.595 364.25V367.01C212.595 367.703 212.428 368.323 212.095 368.87C211.775 369.416 211.328 369.85 210.755 370.17C210.181 370.476 209.528 370.63 208.795 370.63ZM209.155 368.55C209.968 368.55 210.621 368.276 211.115 367.73C211.621 367.183 211.875 366.483 211.875 365.63C211.875 365.056 211.761 364.55 211.535 364.11C211.308 363.67 210.988 363.33 210.575 363.09C210.175 362.836 209.701 362.71 209.155 362.71C208.621 362.71 208.148 362.836 207.735 363.09C207.335 363.33 207.015 363.67 206.775 364.11C206.548 364.55 206.435 365.056 206.435 365.63C206.435 366.203 206.548 366.71 206.775 367.15C207.015 367.59 207.335 367.936 207.735 368.19C208.148 368.43 208.621 368.55 209.155 368.55ZM211.735 370.43V367.85L212.115 365.51L211.735 363.19V360.83H213.935V370.43H211.735ZM220.376 374.63C219.363 374.63 218.476 374.443 217.716 374.07C216.956 373.71 216.343 373.196 215.876 372.53L217.316 371.09C217.703 371.57 218.143 371.93 218.636 372.17C219.13 372.41 219.723 372.53 220.416 372.53C221.283 372.53 221.97 372.303 222.476 371.85C222.983 371.41 223.236 370.803 223.236 370.03V367.67L223.616 365.55L223.236 363.41V360.83H225.436V370.03C225.436 370.95 225.223 371.75 224.796 372.43C224.37 373.123 223.776 373.663 223.016 374.05C222.256 374.436 221.376 374.63 220.376 374.63ZM220.276 370.23C219.423 370.23 218.65 370.023 217.956 369.61C217.276 369.183 216.736 368.603 216.336 367.87C215.95 367.136 215.756 366.316 215.756 365.41C215.756 364.503 215.95 363.69 216.336 362.97C216.736 362.25 217.276 361.683 217.956 361.27C218.65 360.843 219.423 360.63 220.276 360.63C221.036 360.63 221.703 360.783 222.276 361.09C222.85 361.396 223.296 361.823 223.616 362.37C223.936 362.903 224.096 363.53 224.096 364.25V366.61C224.096 367.316 223.93 367.943 223.596 368.49C223.276 369.036 222.83 369.463 222.256 369.77C221.683 370.076 221.023 370.23 220.276 370.23ZM220.716 368.15C221.25 368.15 221.716 368.036 222.116 367.81C222.516 367.583 222.823 367.27 223.036 366.87C223.263 366.456 223.376 365.976 223.376 365.43C223.376 364.883 223.263 364.41 223.036 364.01C222.823 363.596 222.516 363.276 222.116 363.05C221.716 362.823 221.25 362.71 220.716 362.71C220.183 362.71 219.71 362.823 219.296 363.05C218.896 363.276 218.583 363.596 218.356 364.01C218.13 364.41 218.016 364.883 218.016 365.43C218.016 365.963 218.13 366.436 218.356 366.85C218.583 367.263 218.896 367.583 219.296 367.81C219.71 368.036 220.183 368.15 220.716 368.15ZM232.34 370.63C231.38 370.63 230.513 370.416 229.74 369.99C228.98 369.55 228.373 368.95 227.92 368.19C227.48 367.43 227.26 366.576 227.26 365.63C227.26 364.683 227.48 363.836 227.92 363.09C228.36 362.33 228.953 361.73 229.7 361.29C230.46 360.85 231.3 360.63 232.22 360.63C233.113 360.63 233.9 360.836 234.58 361.25C235.273 361.663 235.813 362.23 236.2 362.95C236.6 363.67 236.8 364.49 236.8 365.41C236.8 365.57 236.787 365.736 236.76 365.91C236.747 366.07 236.72 366.25 236.68 366.45H228.8V364.65H235.54L234.72 365.37C234.693 364.783 234.58 364.29 234.38 363.89C234.18 363.49 233.893 363.183 233.52 362.97C233.16 362.756 232.713 362.65 232.18 362.65C231.62 362.65 231.133 362.77 230.72 363.01C230.307 363.25 229.987 363.59 229.76 364.03C229.533 364.456 229.42 364.97 229.42 365.57C229.42 366.17 229.54 366.696 229.78 367.15C230.02 367.603 230.36 367.956 230.8 368.21C231.24 368.45 231.747 368.57 232.32 368.57C232.813 368.57 233.267 368.483 233.68 368.31C234.107 368.136 234.467 367.883 234.76 367.55L236.16 368.97C235.693 369.516 235.127 369.93 234.46 370.21C233.793 370.49 233.087 370.63 232.34 370.63ZM242.868 370.43V356.43H244.468L245.168 359.07V370.43H242.868ZM252.568 370.43L244.188 359.49L244.468 356.43L252.848 367.37L252.568 370.43ZM252.568 370.43L251.868 367.97V356.43H254.168V370.43H252.568ZM261.304 370.63C260.37 370.63 259.524 370.41 258.764 369.97C258.004 369.516 257.397 368.91 256.944 368.15C256.504 367.39 256.284 366.543 256.284 365.61C256.284 364.676 256.504 363.836 256.944 363.09C257.397 362.343 258.004 361.75 258.764 361.31C259.524 360.856 260.37 360.63 261.304 360.63C262.25 360.63 263.104 360.85 263.864 361.29C264.624 361.73 265.224 362.33 265.664 363.09C266.117 363.836 266.344 364.676 266.344 365.61C266.344 366.543 266.117 367.39 265.664 368.15C265.224 368.91 264.624 369.516 263.864 369.97C263.104 370.41 262.25 370.63 261.304 370.63ZM261.304 368.51C261.85 368.51 262.33 368.39 262.744 368.15C263.17 367.896 263.497 367.55 263.724 367.11C263.964 366.67 264.084 366.17 264.084 365.61C264.084 365.05 263.964 364.556 263.724 364.13C263.484 363.703 263.157 363.37 262.744 363.13C262.33 362.876 261.85 362.75 261.304 362.75C260.77 362.75 260.29 362.876 259.864 363.13C259.45 363.37 259.124 363.703 258.884 364.13C258.657 364.556 258.544 365.05 258.544 365.61C258.544 366.17 258.657 366.67 258.884 367.11C259.124 367.55 259.45 367.896 259.864 368.15C260.29 368.39 260.77 368.51 261.304 368.51ZM269.36 370.43V356.83H271.56V370.43H269.36ZM267.06 362.83V360.83H273.86V362.83H267.06ZM280.782 370.43V359.57C280.782 358.836 280.942 358.19 281.262 357.63C281.596 357.07 282.049 356.63 282.622 356.31C283.209 355.99 283.882 355.83 284.642 355.83C285.229 355.83 285.729 355.93 286.142 356.13C286.556 356.33 286.942 356.616 287.302 356.99L285.882 358.41C285.722 358.25 285.549 358.123 285.362 358.03C285.176 357.936 284.936 357.89 284.642 357.89C284.109 357.89 283.696 358.036 283.402 358.33C283.122 358.61 282.982 359.016 282.982 359.55V370.43H280.782ZM278.482 362.83V360.83H285.882V362.83H278.482ZM291.44 370.63C290.507 370.63 289.66 370.41 288.9 369.97C288.14 369.516 287.534 368.91 287.08 368.15C286.64 367.39 286.42 366.543 286.42 365.61C286.42 364.676 286.64 363.836 287.08 363.09C287.534 362.343 288.14 361.75 288.9 361.31C289.66 360.856 290.507 360.63 291.44 360.63C292.387 360.63 293.24 360.85 294 361.29C294.76 361.73 295.36 362.33 295.8 363.09C296.254 363.836 296.48 364.676 296.48 365.61C296.48 366.543 296.254 367.39 295.8 368.15C295.36 368.91 294.76 369.516 294 369.97C293.24 370.41 292.387 370.63 291.44 370.63ZM291.44 368.51C291.987 368.51 292.467 368.39 292.88 368.15C293.307 367.896 293.634 367.55 293.86 367.11C294.1 366.67 294.22 366.17 294.22 365.61C294.22 365.05 294.1 364.556 293.86 364.13C293.62 363.703 293.294 363.37 292.88 363.13C292.467 362.876 291.987 362.75 291.44 362.75C290.907 362.75 290.427 362.876 290 363.13C289.587 363.37 289.26 363.703 289.02 364.13C288.794 364.556 288.68 365.05 288.68 365.61C288.68 366.17 288.794 366.67 289.02 367.11C289.26 367.55 289.587 367.896 290 368.15C290.427 368.39 290.907 368.51 291.44 368.51ZM302.25 370.63C301.437 370.63 300.71 370.45 300.07 370.09C299.443 369.73 298.95 369.236 298.59 368.61C298.243 367.97 298.07 367.236 298.07 366.41V360.83H300.27V366.31C300.27 366.776 300.343 367.176 300.49 367.51C300.65 367.83 300.877 368.076 301.17 368.25C301.477 368.423 301.837 368.51 302.25 368.51C302.89 368.51 303.377 368.323 303.71 367.95C304.057 367.563 304.23 367.016 304.23 366.31V360.83H306.43V366.41C306.43 367.25 306.25 367.99 305.89 368.63C305.543 369.256 305.057 369.75 304.43 370.11C303.803 370.456 303.077 370.63 302.25 370.63ZM315.222 370.43V364.89C315.222 364.25 315.015 363.723 314.602 363.31C314.202 362.896 313.682 362.69 313.042 362.69C312.615 362.69 312.235 362.783 311.902 362.97C311.569 363.156 311.309 363.416 311.122 363.75C310.935 364.083 310.842 364.463 310.842 364.89L309.982 364.41C309.982 363.676 310.142 363.03 310.462 362.47C310.782 361.896 311.222 361.45 311.782 361.13C312.355 360.796 312.995 360.63 313.702 360.63C314.422 360.63 315.062 360.816 315.622 361.19C316.182 361.55 316.622 362.023 316.942 362.61C317.262 363.183 317.422 363.783 317.422 364.41V370.43H315.222ZM308.642 370.43V360.83H310.842V370.43H308.642ZM323.678 370.63C322.811 370.63 322.024 370.41 321.318 369.97C320.624 369.53 320.071 368.936 319.658 368.19C319.258 367.43 319.058 366.583 319.058 365.65C319.058 364.703 319.258 363.856 319.658 363.11C320.071 362.35 320.624 361.75 321.318 361.31C322.024 360.856 322.811 360.63 323.678 360.63C324.411 360.63 325.058 360.79 325.618 361.11C326.191 361.416 326.644 361.843 326.978 362.39C327.311 362.936 327.478 363.556 327.478 364.25V367.01C327.478 367.703 327.311 368.323 326.978 368.87C326.658 369.416 326.211 369.85 325.638 370.17C325.064 370.476 324.411 370.63 323.678 370.63ZM324.038 368.55C324.584 368.55 325.058 368.43 325.458 368.19C325.871 367.936 326.191 367.59 326.418 367.15C326.644 366.71 326.758 366.203 326.758 365.63C326.758 365.056 326.644 364.55 326.418 364.11C326.191 363.67 325.871 363.33 325.458 363.09C325.058 362.836 324.584 362.71 324.038 362.71C323.504 362.71 323.031 362.836 322.618 363.09C322.218 363.33 321.898 363.67 321.658 364.11C321.431 364.55 321.318 365.056 321.318 365.63C321.318 366.203 321.431 366.71 321.658 367.15C321.898 367.59 322.218 367.936 322.618 368.19C323.031 368.43 323.504 368.55 324.038 368.55ZM328.818 370.43H326.618V367.85L326.998 365.51L326.618 363.19V356.03H328.818V370.43Z" fill="#1E1E1E"/>
</svg>
